<svg id="Capa_1" enable-background="new 0 0 510 510" height="512" viewBox="0 0 510 510" width="512" xmlns="http://www.w3.org/2000/svg"><g><g><path d="m510 255c0 39.858-9.145 77.58-25.451 111.183-41.308 85.128-128.575 122.817-229.549 122.817-140.833 0-230-93.167-230-234 0-88.02 19.597-165.625 87.427-211.45 40.698-27.495 89.761-43.55 142.573-43.55 140.833 0 255 114.167 255 255z" fill="#efc22f"/><path d="m342.193 409.597c-140.833 0-255-114.167-255-255 0-39.863 9.154-77.584 25.464-111.189-67.957 45.805-112.657 123.475-112.657 211.592 0 140.833 114.167 255 255 255 100.974 0 188.238-58.691 229.546-143.818-40.656 27.408-89.633 43.415-142.353 43.415z" fill="#e9a329"/></g><path d="m299.653 146.618-3.374-84.269h-87.643l3.779 84.269z" fill="#aa4848"/><path d="m302.718 223.158-.578-14.427h-86.94l.655 14.601-56.063 96.975c-7.708 12.587-8.834 26.035-8.834 40.795l-1.182 8.452h220.761v-13.073c0-14.759-4.079-29.232-11.787-41.819z" fill="#aa4848"/><path d="m253.621 146.618 2.501-62.481 41.047.427-.89-22.215h-87.643l-3.375 84.269z" fill="#8b3e3a"/><path d="m202.774 208.73-.578 14.427-56.033 91.505c-7.708 12.587-11.787 27.059-11.787 41.819v13.073h48.359v-13.073c0-14.759 4.079-29.232 11.787-41.819l41.603-67.94c7.146-11.67 11.941-24.575 14.175-37.992z" fill="#8b3e3a"/><path d="m304.817 76.206h-106.758l2.513-23.792c.845-8.004 7.596-14.08 15.645-14.08h70.442c8.049 0 14.8 6.075 15.645 14.08z" fill="#c4bdc1"/><path d="m206.602 113.13h91.71l-.4-10h-90.909z" fill="#8b3e3a"/><path d="m301.518 193.187-2.043-51.037h-66.433v51.037z" fill="#6e8a27"/><path d="m237.268 161.487.774-19.337h-32.602l-2.738 68.366h99.509l-.873-21.798h-37.908c-14.871 0-26.757-12.371-26.162-27.231z" fill="#556e31"/><g fill="#a29fa8"><path d="m222.355 76.206h-14.653v-17.179c0-4.046 3.28-7.327 7.327-7.327 4.046 0 7.327 3.28 7.327 7.327v17.179z"/><path d="m245.928 76.206h-14.653v-17.179c0-4.046 3.28-7.327 7.327-7.327 4.046 0 7.327 3.28 7.327 7.327v17.179z"/><path d="m269.876 76.206h-14.653v-17.179c0-4.046 3.28-7.327 7.327-7.327 4.046 0 7.327 3.28 7.327 7.327v17.179z"/><path d="m295.174 76.206h-14.653v-17.179c0-4.046 3.28-7.327 7.327-7.327 4.046 0 7.327 3.28 7.327 7.327v17.179z"/></g><path d="m134.344 366.757h236.228v64.252h-236.228z" fill="#6e8a27"/><path d="m134.344 366.757h69.327v64.252h-69.327z" fill="#556e31"/><path d="m134.344 479.693c11.21 6.032 22.925 11.243 35.062 15.567h171.217c10.306-3.674 20.304-7.994 29.949-12.908v-51.344h-236.228z" fill="#dd3e3e"/><path d="m134.344 479.693c11.21 6.032 22.925 11.243 35.062 15.567h34.265v-64.252h-69.327z" fill="#bc1b2c"/><path d="m271.302 411.541c0 3.34-.427 6.582-1.149 9.676-3.936 16.877-15.592 24.475-15.592 24.475s-16.741-12.594-16.741-34.151c0-8.883.927-17.072 4.479-23.632 5.067-9.36 11.216-15.401 11.216-15.401s17.787 17.476 17.787 39.033z" fill="#efc22f"/><path d="m265.051 429.291c-3.024 4.164-9.207 4.159-12.231-.006-5.146-7.086-11.669-18.644-11.669-31.699 0-3.34.428-6.582 1.149-9.676-3.551 6.56-6.572 14.748-6.572 23.631 0 21.557 17.787 39.032 17.787 39.032s12.702-12.48 16.638-29.357c-1.67 3.085-3.457 5.809-5.102 8.075z" fill="#e9a329"/><path d="m243.737 450.584c4.696 7.386 6.557 15.778 7.111 23.141.81 10.771-2.458 15.275-2.458 15.275s-21.461-2.658-33.027-20.849c-7.209-11.338-9.381-23.524-8.756-32.243.378-5.27 1.178-8.718 1.178-8.718s24.385 5.203 35.952 23.394z" fill="#efc22f"/><path d="m250.836 473.883c-.342 4.636-5.064 7.643-9.408 5.987-8.161-3.112-20.457-9.412-27.711-20.821-4.696-7.386-6.557-15.778-7.111-23.141-.626 8.719-.098 22.426 7.111 33.764 11.567 18.191 35.953 23.394 35.953 23.394s1.987-8.57 1.177-19.341c-.004.053-.007.105-.011.158z" fill="#e9a329"/><path d="m265.248 453.289c-8.847 25.761-5.09 33.358-5.09 33.358s21.006 1.216 32.572-16.975 5.933-42.482 5.933-42.482-13.273 2.832-24.879 11.622c-4.126 3.124-6.7 9.13-8.536 14.477z" fill="#efc22f"/><path d="m267.962 472.254c-.756-8.111-.702-21.769 5.823-33.441-4.126 3.125-8.041 7-11.074 11.771-11.567 18.191-5.933 42.482-5.933 42.482s24.386-5.203 35.953-23.394c.406-.639.789-1.287 1.154-1.94-6.32 4.786-13.134 7.807-18.03 9.565-3.644 1.308-7.534-1.189-7.893-5.043z" fill="#e9a329"/></g></svg>